<svg width="550" height="100" viewBox="0 0 550 100" fill="none" xmlns="http://www.w3.org/2000/svg">
<g clip-path="url(#clip0_898_6)">
<path d="M148.81 89.54C143.29 89.54 139 88.04 135.94 85.04C132.94 81.98 131.44 77.69 131.44 72.17V50.57H122.98V40.04H123.88C126.28 40.04 128.14 39.41 129.46 38.15C130.78 36.89 131.44 35.06 131.44 32.66V28.88H143.23V40.04H154.48V50.57H143.23V71.54C143.23 74 143.89 75.89 145.21 77.21C146.53 78.53 148.63 79.19 151.51 79.19C152.41 79.19 153.46 79.1 154.66 78.92V89C153.82 89.12 152.86 89.24 151.78 89.36C150.7 89.48 149.71 89.54 148.81 89.54ZM178.342 90.08C173.242 90.08 169.162 88.82 166.102 86.3C163.042 83.78 161.512 80.36 161.512 76.04C161.512 71.96 162.892 68.57 165.652 65.87C168.412 63.17 172.672 61.34 178.432 60.38L193.012 58.04V56.42C193.012 54.32 192.172 52.58 190.492 51.2C188.872 49.76 186.712 49.04 184.012 49.04C181.432 49.04 179.182 49.73 177.262 51.11C175.342 52.43 173.932 54.2 173.032 56.42L163.402 51.74C164.842 47.9 167.482 44.81 171.322 42.47C175.162 40.13 179.542 38.96 184.462 38.96C188.482 38.96 191.992 39.71 194.992 41.21C198.052 42.71 200.452 44.78 202.192 47.42C203.932 50 204.802 53 204.802 56.42V89H193.642V83.87C189.802 88.01 184.702 90.08 178.342 90.08ZM173.752 75.59C173.752 77.27 174.382 78.62 175.642 79.64C176.902 80.6 178.522 81.08 180.502 81.08C184.222 81.08 187.222 79.94 189.502 77.66C191.842 75.32 193.012 72.44 193.012 69.02V67.04L180.682 69.11C176.062 69.95 173.752 72.11 173.752 75.59ZM215.699 34.55V21.95H227.489V34.55H215.699ZM215.699 89V40.04H227.489V89H215.699ZM238.375 89V20.87H250.165V89H238.375ZM273.381 89L256.551 40.04H268.971L279.141 70.91L290.121 40.04H300.561L311.361 70.91L321.621 40.04H334.041L317.211 89H306.681L295.341 55.97L283.821 89H273.381ZM340.504 34.55V21.95H352.294V34.55H340.504ZM340.504 89V40.04H352.294V89H340.504ZM363.179 89V40.04H374.249V46.07C375.569 43.73 377.429 41.96 379.829 40.76C382.229 39.56 384.989 38.96 388.109 38.96C391.709 38.96 394.889 39.77 397.649 41.39C400.409 42.95 402.569 45.11 404.129 47.87C405.749 50.63 406.559 53.84 406.559 57.5V89H394.769V60.29C394.769 57.05 393.839 54.5 391.979 52.64C390.179 50.72 387.809 49.76 384.869 49.76C381.929 49.76 379.529 50.72 377.669 52.64C375.869 54.56 374.969 57.11 374.969 60.29V89H363.179ZM439.299 90.08C434.559 90.08 430.299 88.97 426.519 86.75C422.799 84.47 419.859 81.41 417.699 77.57C415.599 73.67 414.549 69.32 414.549 64.52C414.549 59.72 415.629 55.4 417.789 51.56C419.949 47.72 422.889 44.66 426.609 42.38C430.329 40.1 434.529 38.96 439.209 38.96C442.329 38.96 445.149 39.5 447.669 40.58C450.249 41.6 452.439 43.07 454.239 44.99V20.87H466.029V89H454.869V83.51C453.129 85.67 450.879 87.32 448.119 88.46C445.419 89.54 442.479 90.08 439.299 90.08ZM440.559 79.28C443.199 79.28 445.539 78.65 447.579 77.39C449.679 76.13 451.299 74.39 452.439 72.17C453.639 69.95 454.239 67.4 454.239 64.52C454.239 61.7 453.639 59.18 452.439 56.96C451.299 54.74 449.679 53 447.579 51.74C445.539 50.42 443.199 49.76 440.559 49.76C437.919 49.76 435.549 50.42 433.449 51.74C431.349 53 429.699 54.74 428.499 56.96C427.359 59.18 426.789 61.7 426.789 64.52C426.789 67.4 427.359 69.95 428.499 72.17C429.699 74.39 431.349 76.13 433.449 77.39C435.549 78.65 437.919 79.28 440.559 79.28Z" fill="black"/>
<path d="M473.65 31V8.29H478.15V31H473.65ZM481.443 13.15V8.65H485.943V13.15H481.443ZM481.443 31V14.62H485.943V31H481.443ZM497.126 31.18C495.146 31.18 493.606 30.65 492.506 29.59C491.426 28.51 490.886 27.01 490.886 25.09V18.52H488.126V14.62H488.276C490.016 14.62 490.886 13.78 490.886 12.1V10.9H495.386V14.62H499.226V18.52H495.386V24.79C495.386 26.45 496.316 27.28 498.176 27.28C498.456 27.28 498.806 27.25 499.226 27.19V31C498.926 31.04 498.586 31.08 498.206 31.12C497.826 31.16 497.466 31.18 497.126 31.18ZM509.753 31.36C508.013 31.36 506.503 30.98 505.223 30.22C503.943 29.44 502.953 28.4 502.253 27.1C501.553 25.8 501.203 24.36 501.203 22.78C501.203 21.14 501.563 19.68 502.283 18.4C503.023 17.12 504.013 16.11 505.253 15.37C506.493 14.63 507.893 14.26 509.453 14.26C511.193 14.26 512.663 14.62 513.863 15.34C515.063 16.06 515.973 17.03 516.593 18.25C517.233 19.45 517.553 20.81 517.553 22.33C517.553 22.65 517.533 22.97 517.493 23.29C517.473 23.59 517.423 23.85 517.343 24.07H505.883C506.003 25.09 506.413 25.91 507.113 26.53C507.813 27.15 508.713 27.46 509.813 27.46C510.613 27.46 511.293 27.3 511.853 26.98C512.433 26.66 512.883 26.22 513.203 25.66L516.803 27.37C516.303 28.57 515.423 29.54 514.163 30.28C512.903 31 511.433 31.36 509.753 31.36ZM509.453 17.86C508.573 17.86 507.823 18.11 507.203 18.61C506.603 19.11 506.193 19.83 505.973 20.77H512.783C512.683 19.91 512.333 19.21 511.733 18.67C511.133 18.13 510.373 17.86 509.453 17.86Z" fill="#5479FF"/>
<path fill-rule="evenodd" clip-rule="evenodd" d="M65.0008 31C53.7998 31 46.8011 36.5559 43.9996 47.6678C48.2002 42.1118 53.1003 40.0288 58.7 41.4169C61.8948 42.2088 64.1795 44.5087 66.7061 47.055C70.8243 51.2014 75.5911 56 86.0004 56C97.1998 56 104.2 50.4441 107 39.3339C102.801 44.8898 97.9009 46.9729 92.3013 45.5831C89.1048 44.7912 86.8201 42.4913 84.2935 39.9466C80.1752 35.797 75.4101 31 65.0008 31ZM43.9996 56C32.8002 56 25.7998 61.5559 23 72.6678C27.2006 67.1118 32.1007 65.0288 37.6987 66.4169C40.8952 67.2088 43.1799 69.5087 45.7065 72.055C49.8248 76.2014 54.5899 81 65.0008 81C76.2002 81 83.2006 75.4457 86.0004 64.3339C81.7998 69.8898 76.8997 71.9729 71.3 70.5847C68.1052 69.7912 65.8205 67.4913 63.2939 64.9466C59.1756 60.8002 54.4089 56 43.9996 56Z" fill="#5479FF"/>
</g>
<defs>
<clipPath id="clip0_898_6">
<rect width="550" height="100" fill="white"/>
</clipPath>
</defs>
</svg>
