<svg width="139" height="66" viewBox="0 0 139 66" fill="none" xmlns="http://www.w3.org/2000/svg">
<path d="M85.337 3.21177C84.6659 3.88236 84.6423 4.76471 85.2782 5.38824C86.2201 6.34118 87.8686 5.70589 87.8686 4.4C87.8686 3.37647 87.3152 2.82353 86.2672 2.82353C85.808 2.82353 85.6667 2.88236 85.337 3.21177Z" fill="#5479FF"/>
<path d="M44.6671 3.70589C42.9597 4.02354 41.6174 4.95295 41.0169 6.2353C40.593 7.11766 40.593 8.4706 40.9933 9.37648C41.6645 10.8706 43.2659 11.8118 46.4804 12.6C48.1759 13.0118 49.0119 13.5294 49.2357 14.3294C49.4594 15.1059 48.8824 16 47.9051 16.4118C47.2575 16.6824 45.9858 16.7647 45.1027 16.5882C44.1254 16.4 42.736 15.753 42.0413 15.1647L41.4879 14.6941L40.8167 15.7059C40.4399 16.2588 40.1691 16.7294 40.1927 16.7412C40.2162 16.7647 40.487 16.9765 40.7814 17.2118C41.4761 17.7647 43.101 18.5294 44.1372 18.7765C45.2558 19.0588 47.3164 19.0471 48.2466 18.7765C50.4367 18.1177 51.779 16.7059 51.9203 14.9059C52.0145 13.8235 51.7437 13 51.049 12.2235C50.0363 11.1059 48.8118 10.4941 46.4804 9.94119C44.2432 9.41177 43.3601 8.76472 43.3601 7.65883C43.3601 7.22354 43.4307 7.08236 43.8075 6.70589C44.9497 5.56472 47.493 5.62354 49.3652 6.8353C49.9422 7.20001 50.1305 7.28236 50.213 7.15295C50.2718 7.0706 50.5309 6.6353 50.8017 6.18825L51.2962 5.37648L50.943 5.09413C50.4131 4.65883 49.1297 4.0353 48.3408 3.8353C47.2928 3.56472 45.6915 3.50589 44.6671 3.70589Z" fill="#5479FF"/>
<path d="M54.864 4.90589C54.8169 4.94118 54.7816 5.61177 54.7816 6.37648V7.76471H53.8985H53.0154V8.82354V9.88236H53.8985H54.7816V12.6118C54.7816 15.6 54.8993 16.7059 55.2526 17.4C55.5587 18.0235 56.3241 18.6471 56.9952 18.8353C57.7841 19.0706 59.1971 19.0353 59.88 18.7765L60.4334 18.5647V17.4471C60.4334 16.4235 60.4099 16.3294 60.2333 16.4118C60.1155 16.4588 59.7387 16.5529 59.3973 16.6235C58.6319 16.7882 57.9254 16.5765 57.5604 16.0824C57.3249 15.7647 57.3131 15.5765 57.2778 12.8118L57.2425 9.88236H58.8439H60.4334V8.82354V7.76471H58.8439H57.2543V6.29412V4.82354H56.1003C55.4645 4.82354 54.8993 4.85883 54.864 4.90589Z" fill="#5479FF"/>
<path d="M77.3891 6.29412V7.76471H76.4471H75.5051V8.82353V9.88236H76.4353H77.3655L77.4126 13.2588C77.448 16.4 77.4715 16.6824 77.6952 17.1765C78.0249 17.8941 78.7314 18.5412 79.4497 18.7882C80.215 19.0588 81.8635 19.0588 82.4875 18.7882L82.9232 18.6V17.4588C82.9232 16.4235 82.8997 16.3294 82.723 16.4118C81.9106 16.7529 80.8626 16.7647 80.4505 16.4353C79.8853 16 79.8618 15.8706 79.8618 12.8V9.88236H81.3925H82.9232V8.82353V7.76471H81.3925H79.8618V6.29412V4.82353H78.6254H77.3891V6.29412Z" fill="#5479FF"/>
<path d="M66.3797 7.54118C64.0718 7.81176 62.2821 9.48235 61.7758 11.8706C61.0575 15.2706 63.0003 18.3765 66.1913 18.9529C67.722 19.2235 69.2763 18.7765 70.3949 17.7412L70.913 17.2588V18.0471V18.8235H72.1493H73.3857V13.2941V7.76471H72.1493H70.913V8.49412V9.22353L70.5362 8.87059C69.3705 7.78823 68.0282 7.36471 66.3797 7.54118ZM69.2174 10.2353C70.23 10.7294 70.913 11.9176 70.913 13.1882C70.913 14.6235 70.336 15.6353 69.135 16.2941C68.5698 16.6 68.3814 16.6353 67.5572 16.6353C66.4503 16.6235 65.944 16.4353 65.2022 15.7529C63.8952 14.5412 63.7775 12.3647 64.9549 10.9647C65.9087 9.84706 67.7573 9.52941 69.2174 10.2353Z" fill="#5479FF"/>
<path d="M94.0032 7.71765C93.0613 7.96471 92.2488 8.44706 91.507 9.17647C90.306 10.3529 89.8232 11.6941 89.8939 13.5765C89.9292 14.6588 89.9763 14.8471 90.3649 15.6824C91.2244 17.4824 92.8493 18.6706 94.8393 18.9529C96.7232 19.2235 98.7014 18.6118 99.9495 17.3529C100.974 16.3412 100.974 16.3529 99.8082 15.6588C99.2548 15.3294 98.7602 15.0588 98.7249 15.0588C98.6778 15.0588 98.5365 15.2118 98.4188 15.4C97.9478 16.0941 96.7114 16.7059 95.7459 16.7059C93.3674 16.7059 91.7189 14.2471 92.5667 11.9882C93.4381 9.69412 96.5701 9.09412 98.2422 10.9059C98.7956 11.5059 98.7367 11.5059 99.9613 10.7529L100.821 10.2118L100.456 9.70588C99.7964 8.78824 98.6425 8.03529 97.4061 7.70588C96.5819 7.48235 94.8275 7.49412 94.0032 7.71765Z" fill="#5479FF"/>
<path d="M85.1604 13.2941V18.8235H86.3379H87.5154V13.2941V7.76471H86.3379H85.1604V13.2941Z" fill="#5479FF"/>
<path d="M43.9802 31.5266C42.9404 32.4372 42.831 33.8867 43.7066 34.9646C45.3483 36.9531 48.4493 35.2248 47.7744 32.6973C47.3731 31.1549 45.2024 30.4858 43.9802 31.5266Z" fill="black"/>
<path d="M89.894 31.3593C88.3434 32.2142 88.5623 34.9274 90.2223 35.6336C92.7032 36.6929 94.7462 33.4221 92.7396 31.6381C92.2289 31.1735 91.9553 31.0619 91.2438 31.0619C90.7696 31.0805 90.1676 31.192 89.894 31.3593Z" fill="black"/>
<path d="M51.8423 43.9221L51.897 56.2434L53.7759 56.2991L55.6365 56.3549V43.9779V31.6195H53.7211H51.8058L51.8423 43.9221Z" fill="black"/>
<path d="M131.521 36.3956V41.1717L130.937 40.6142C129.369 39.1089 127.763 38.477 125.593 38.477C121.47 38.477 118.241 41.1717 117.366 45.3531C116.253 50.7239 119.263 55.6301 124.206 56.5407C126.578 56.9681 128.985 56.262 130.718 54.6266L131.521 53.8646V55.1097V56.3363H133.436H135.352V43.9779V31.6195H133.436H131.521V36.3956ZM128.894 42.7699C130.463 43.5505 131.521 45.4274 131.521 47.4345C131.521 49.7018 130.627 51.3 128.767 52.3407C127.909 52.8239 127.599 52.8982 126.322 52.8797C124.516 52.8797 123.477 52.4151 122.327 51.1142C120.12 48.6053 120.85 44.2381 123.75 42.7328C125.191 41.9894 127.307 42.008 128.894 42.7699Z" fill="black"/>
<path d="M3.64829 34.5V36.4513L7.1689 36.4885L10.6713 36.5443L10.726 46.4496L10.7625 56.3549L12.7325 56.2991L14.6844 56.2434L14.7391 46.3381L14.7756 36.4513H18.2415H21.7073V34.5V32.5487H12.6778H3.64829V34.5Z" fill="black"/>
<path d="M28.0919 38.5327C24.7172 38.923 21.835 41.785 21.0507 45.5204C20.7405 47.1 20.7405 47.9363 21.0689 49.5531C21.8533 53.3257 24.48 55.9646 28.0189 56.5407C30.372 56.931 32.8711 56.1876 34.4581 54.6451C34.8594 54.2363 35.2425 53.9204 35.2972 53.9204C35.352 53.9204 35.3884 54.4593 35.3884 55.1283V56.3363H37.2126H39.0367V47.6018V38.8673H37.2126H35.3884V40.0938V41.3389L34.4764 40.4655C32.8346 38.9044 30.6457 38.2354 28.0919 38.5327ZM32.7617 42.8628C34.3669 43.8292 35.2608 45.4646 35.279 47.5089C35.279 49.7018 34.294 51.3743 32.3786 52.3965C31.6125 52.8053 31.2294 52.8796 30.0072 52.8796C28.785 52.8796 28.402 52.8053 27.6176 52.3965C26.0488 51.5602 25.1185 50.2407 24.8449 48.5124C24.4618 45.9478 25.6657 43.5133 27.7088 42.6398C29.2776 41.9708 31.43 42.0637 32.7617 42.8628Z" fill="black"/>
<path d="M104.797 38.7558C103.666 39.1274 102.663 39.7035 102.079 40.3354C101.769 40.6513 101.477 40.9115 101.386 40.9115C101.313 40.9115 101.24 40.4469 101.24 39.8894V38.8673H99.416H97.5919V47.6018V56.3363H99.3978H101.204L101.277 50.8912C101.35 45.0372 101.386 44.7956 102.389 43.5876C103.958 41.692 107.752 41.692 109.157 43.569C110.087 44.7956 110.178 45.5204 110.178 51.1699V56.3549L112.057 56.2991L113.918 56.2434V50.1106C113.918 44.6469 113.881 43.8664 113.59 42.9372C112.951 40.9673 111.474 39.462 109.558 38.7929C108.482 38.4398 105.873 38.4027 104.797 38.7558Z" fill="black"/>
<path d="M43.5971 47.6018V56.3363H45.5125H47.4278V47.6018V38.8673H45.5125H43.5971V47.6018Z" fill="black"/>
<path d="M59.0476 40.7628C59.4125 41.8221 60.7988 45.7248 62.1122 49.4602L64.5201 56.2434L66.4537 56.2991L68.3873 56.3549L70.4486 49.8876L72.5281 43.4204L72.9294 44.6283C73.1301 45.2974 74.0604 48.1965 74.9724 51.0956L76.6324 56.3549L78.566 56.2991L80.4996 56.2434L80.7367 55.5929C80.8644 55.2398 81.8677 52.3593 82.9987 49.1814C84.1114 46.0035 85.3883 42.3982 85.8261 41.1345L86.6287 38.8673H84.5857H82.5426L80.6455 44.9628C79.5875 48.308 78.6937 51.0956 78.6207 51.1885C78.566 51.2628 77.6175 48.5124 76.523 45.0929L74.5346 38.8673H72.5646H70.6127L68.6426 45C67.5664 48.3637 66.6361 51.1328 66.5814 51.1328C66.5084 51.1328 65.5963 48.4009 64.5383 45.0372L62.623 38.9602L60.507 38.9044L58.3727 38.8487L59.0476 40.7628Z" fill="black"/>
<path d="M89.2373 47.546L89.292 56.2434L91.1709 56.2991L93.0315 56.3549V47.6018V38.8673H91.1161H89.2008L89.2373 47.546Z" fill="black"/>
</svg>
